<?xml version="1.0" encoding="utf-8"?>
<!-- Generator: Adobe Illustrator 22.1.0, SVG Export Plug-In . SVG Version: 6.00 Build 0)  -->
<svg version="1.1" id="Layer_1" xmlns="http://www.w3.org/2000/svg" xmlns:xlink="http://www.w3.org/1999/xlink" x="0px" y="0px"
	 viewBox="0 0 500 180" style="enable-background:new 0 0 500 180;" xml:space="preserve">
<style type="text/css">
	.st0{fill:#FFFFFF;}
</style>
<g id="XMLID_385_">
	<g id="XMLID_384_">
		<path id="XMLID_483_" d="M154.9,45.1l0,36.9l-6.6,0l0-44.4l10.1,0l13.8,37.3l13.8-37.2l10,0l0,44.4l-6.6,0l0-36.9l-13.7,36.9
			l-7.3,0L154.9,45.1z"/>
		<path id="XMLID_485_" d="M202.8,66.3c0-10.2,6.5-16.4,15.8-16.4c9.4,0,15.9,6.3,15.9,16.5c0,10.2-6.5,16.3-15.9,16.3
			C209.3,82.7,202.8,76.5,202.8,66.3z M227.8,66.4c0-6.3-3.2-11.2-9.1-11.2c-5.9,0-9.1,4.9-9.1,11.2c0,6.3,3.2,11.1,9.1,11.1
			C224.6,77.5,227.8,72.6,227.8,66.4z"/>
		<path id="XMLID_488_" d="M240.5,82.1l0-31.5l6.1,0l0,4.7c2.2-3.2,5.7-5.3,10.6-5.3c7.2,0,11.1,4.7,11.1,12.2l0,20l-6.4,0l0-18.4
			c0-6.1-2.7-8.4-6.8-8.4c-5.2,0-8.2,4.2-8.2,9.5l0,17.3L240.5,82.1z"/>
		<path id="XMLID_490_" d="M302.8,50.6l0,31.5l-6.1,0l0-4.7c-2.1,3.3-5.5,5.3-10.3,5.3c-7.1,0-10.9-4.7-10.9-12.1l0-20l6.4,0l0,18.4
			c0,6.1,2.6,8.4,6.7,8.5c5,0,7.9-4.3,7.9-9.5l0-17.3L302.8,50.6z"/>
		<path id="XMLID_492_" d="M357.9,82.2l-6.3,0l0-19c0-5.2-2.2-7.7-6.6-7.7c-3.7,0-7.4,2.9-7.4,8.5l0,18.2l-6.3,0l0-18.7
			c0-5.5-2.1-8.1-6.6-8.1c-4,0-7.3,3.5-7.3,9.3l0,17.4l-6.5,0l0-31.5l6.1,0l0,4.7c1.8-2.8,5-5.3,9.7-5.3c4.5,0,7.8,1.9,9.5,5.5
			c2.3-3.3,5.5-5.5,10.6-5.5c6.3,0,11,3.6,11,12.2L357.9,82.2z"/>
		<path id="XMLID_494_" d="M379.2,50c9.1,0,15.2,5.7,15.2,16.2l0,2.2l-24.2,0c0.2,4.9,3.4,9.3,8.9,9.3c3.9,0,7.1-1.9,8.1-5.4l6.7,0
			c-1.4,6.9-7.4,10.4-14.7,10.4c-8.8,0-15.5-6-15.5-16.4C363.6,56.4,369.9,50,379.2,50z M387.8,63.6c-0.3-5.4-3.8-8.6-8.5-8.6
			c-4.9,0-8.4,3.5-9.1,8.6L387.8,63.6z"/>
		<path id="XMLID_497_" d="M400.6,82.2l0-31.5l6.1,0l0,4.7c2.2-3.2,5.7-5.3,10.6-5.3c7.2,0,11.1,4.7,11.1,12.2l0,20l-6.4,0l0-18.4
			c0-6.1-2.7-8.4-6.8-8.4c-5.2,0-8.2,4.2-8.2,9.5l0,17.3L400.6,82.2z"/>
		<path id="XMLID_499_" d="M433.1,50.6l5.2,0l0-8.2l6.3,0l0,8.2l8.7,0l0,5.4l-8.7,0l0,15.4c0,3.6,1.2,5.6,4.4,5.6
			c1.4,0,2.9-0.2,4.4-0.5l0,5.5c-1.9,0.4-4.1,0.6-6,0.6c-6,0-9.1-3.5-9.1-9.8l0-16.8l-5.1,0L433.1,50.6z"/>
		<path id="XMLID_501_" d="M148.4,91.7l6.8,0l0,38.2l23.3,0l0,6.2l-30.1,0L148.4,91.7z"/>
		<path id="XMLID_503_" d="M205.1,136.1l0-4.9c-2.5,3.9-7,5.5-11.6,5.5c-5.8,0-10.7-3.1-10.7-9.1c0-5.6,4.4-8.6,10.2-9.6l11.8-2
			l0-1.3c0-4.2-3.1-5.8-7.4-5.8s-6.7,1.7-7,5l-6.5,0c0.3-6.8,6.1-10,13.5-10c8.4,0,13.6,3.5,13.6,11.4l0,20.8L205.1,136.1z
			 M204.7,122.8l0-2l-9.9,1.7c-3.9,0.7-5.7,2.2-5.7,5.1c0,2.5,2,4.2,5.8,4.2C199.8,131.7,204.7,128.9,204.7,122.8z"/>
		<path id="XMLID_506_" d="M249.3,120.4c0,10.4-6.4,16.3-14.1,16.3c-4.7,0-8.4-1.7-10.7-5.1l0,4.5l-6.1,0l0-44.4l6.5,0l0,17.2
			c2.4-3.3,6.1-4.9,10.4-4.9C243,103.9,249.3,109.9,249.3,120.4z M224.3,120.4c0,6.3,3.2,11.1,9.1,11.1c5.9,0,9.1-4.9,9.1-11.1
			c0-6.3-3.2-11.2-9.1-11.2C227.6,109.2,224.3,114,224.3,120.4z"/>
	</g>
	<path id="XMLID_382_" d="M131.5,125.1V64.2c0-0.8-0.6-1.4-1.4-1.4c-4.1,0-7.4-3.3-7.4-7.4c0,0,0,0,0,0V39c0-0.8-0.6-1.4-1.4-1.4
		H53.9c-0.8,0-1.4,0.6-1.4,1.4v16.2c0,0.1,0,0.1,0,0.2c0,4.1-3.3,7.4-7.4,7.4c-0.8,0-1.4,0.6-1.4,1.4V135c0,0.8,0.6,1.4,1.4,1.4h0
		h85h0c0.8,0,1.4-0.6,1.4-1.4L131.5,125.1C131.5,125.1,131.5,125.1,131.5,125.1z M90.4,76c-2.6-0.2-5,0.2-7,1.2
		c-3.4,1.8-5.8,4.9-6.6,8.5L55.6,41.1c-0.1-0.1,0.1-0.3,0.2-0.2L90.4,76z M77.6,93.7c0.1,0.1,0.1,0.2,0.2,0.3
		c0.9,1.8,2.2,3.4,3.8,4.6H55.3V55.4l0-9.1L77.6,93.7z M55.2,116.6c0-0.1,0-0.2,0-0.3v-15.1h64.7v15.1c0,0,0,0.1,0,0.1
		c0,3.5,1.8,6.5,4.5,8.4H50.7C53.4,123,55.1,120,55.2,116.6z M128.7,65.5v58.1c-3.4-0.6-6-3.7-6-7.3c0,0,0,0,0-0.1V99.9V62.3
		C124.2,64,126.3,65.1,128.7,65.5z M119.9,55.4v43.3H89.5c0,0,0,0,0,0c-5.5,0-10.3-4.6-10.3-10.1c0-3.8,2.1-7.2,5.4-8.9
		c1.7-0.9,3.8-1.2,6.1-0.9c0.7,0.1,2.6,0.4,3.1,0.4c0.1,0,0.2,0,0.4,0c0.3,0,0.7-0.1,1-0.4c0.5-0.5,0.5-1.4,0-1.9L58.9,40.4h61.1
		V55.4z M52.5,62.3v37.6v16.2c0,0.1,0,0.1,0,0.2c0,3.6-2.6,6.6-6,7.3V65.5C48.8,65.1,50.9,64,52.5,62.3z M46.5,133.6v-6.3h82.2v6.3
		H46.5z"/>
</g>
</svg>
