<?xml version="1.0" standalone="no"?>
<!DOCTYPE svg PUBLIC "-//W3C//DTD SVG 20010904//EN"
 "http://www.w3.org/TR/2001/REC-SVG-20010904/DTD/svg10.dtd">
<svg version="1.0" xmlns="http://www.w3.org/2000/svg"
 width="500.000000pt" height="500.000000pt" viewBox="0 0 500.000000 500.000000"
 preserveAspectRatio="xMidYMid meet">
<metadata>
Created by potrace 1.11, written by Peter Selinger 2001-2013
</metadata>
<g transform="translate(0.000000,500.000000) scale(0.100000,-0.100000)"
fill="#000000" stroke="none">
<path d="M0 2500 l0 -2500 2500 0 2500 0 0 2500 0 2500 -2500 0 -2500 0 0
-2500z m3888 1968 c7 -8 11 -147 14 -383 l3 -370 26 -55 c14 -30 37 -69 52
-85 37 -45 115 -84 187 -94 42 -5 68 -14 77 -26 11 -16 13 -269 13 -1452 0
-1420 0 -1433 -20 -1453 -20 -20 -33 -20 -1740 -20 -1707 0 -1720 0 -1740 20
-20 20 -20 33 -20 1453 0 1183 2 1436 13 1452 9 12 35 21 77 26 72 10 150 49
187 94 15 16 38 55 52 85 l26 55 3 370 c3 236 7 375 14 383 8 9 298 12 1388
12 1090 0 1380 -3 1388 -12z"/>
<path d="M2088 3637 c773 -773 760 -759 713 -801 -17 -16 -26 -16 -132 -1
-180 24 -272 0 -375 -97 -100 -94 -149 -234 -124 -355 33 -163 166 -297 328
-332 36 -7 252 -11 672 -11 l620 0 0 1165 0 1165 -1217 0 -1218 0 733 -733z"/>
<path d="M1222 4345 c39 -91 843 -1773 847 -1770 2 3 12 27 21 54 24 66 91
162 142 204 99 79 167 106 289 115 l86 7 -694 700 c-382 385 -693 696 -691
690z"/>
<path d="M1210 3078 l0 -1038 521 0 521 0 -54 59 c-30 32 -73 94 -95 137 -23
43 -226 473 -453 954 -227 481 -418 886 -426 900 -11 21 -13 -132 -14 -1012z"/>
<path d="M1032 3443 c-35 -24 -91 -51 -123 -60 l-59 -16 0 -1159 c0 -1033 2
-1158 15 -1158 60 0 170 92 206 173 l24 52 3 960 c1 528 1 1026 0 1106 l-3
145 -63 -43z"/>
<path d="M3902 2383 l3 -1108 24 -52 c36 -81 146 -173 206 -173 13 0 15 125
15 1158 l0 1159 -59 16 c-33 9 -89 37 -125 62 l-67 45 3 -1107z"/>
<path d="M1210 1643 c0 -164 -4 -326 -9 -360 -13 -86 -50 -163 -112 -228 l-52
-55 1463 0 1463 0 -52 55 c-63 67 -100 144 -112 233 -4 37 -8 199 -9 360 l0
292 -1290 0 -1290 0 0 -297z"/>
<path d="M854 887 c-2 -7 -3 -65 -2 -128 l3 -114 1645 0 1645 0 0 125 0 125
-1643 3 c-1349 2 -1644 0 -1648 -11z"/>
</g>
</svg>
